<svg width="311" height="253" viewBox="0 0 311 253" fill="none" xmlns="http://www.w3.org/2000/svg">
  <g opacity="0.8">
    <mask id="mask0_6221_33336" style="mask-type:alpha" maskUnits="userSpaceOnUse" x="0" y="-12" width="311" height="265">
      <line x1="258.579" y1="-1.73145" x2="279.265" y2="-1.73145" stroke="#C33579" stroke-width="4"/>
      <line x1="269.507" y1="7.62964" x2="269.507" y2="-12" stroke="#C33579" stroke-width="4"/>
      <line x1="258.579" y1="47.3425" x2="279.265" y2="47.3425" stroke="#C33579" stroke-width="4"/>
      <line x1="269.507" y1="56.7036" x2="269.507" y2="37.074" stroke="#C33579" stroke-width="4"/>
      <line x1="206.863" y1="47.3425" x2="227.549" y2="47.3425" stroke="#C33579" stroke-width="4"/>
      <line x1="217.792" y1="56.7036" x2="217.792" y2="37.074" stroke="#C33579" stroke-width="4"/>
      <line x1="258.579" y1="96.4167" x2="279.265" y2="96.4167" stroke="#C33579" stroke-width="4"/>
      <line x1="269.507" y1="105.778" x2="269.507" y2="86.1482" stroke="#C33579" stroke-width="4"/>
      <line x1="206.863" y1="96.4167" x2="227.549" y2="96.4167" stroke="#C33579" stroke-width="4"/>
      <line x1="217.792" y1="105.778" x2="217.792" y2="86.1482" stroke="#C33579" stroke-width="4"/>
      <line x1="206.863" y1="-1.73145" x2="227.549" y2="-1.73145" stroke="#C33579" stroke-width="4"/>
      <line x1="217.792" y1="7.62964" x2="217.792" y2="-12" stroke="#C33579" stroke-width="4"/>
      <line x1="258.579" y1="145.491" x2="279.265" y2="145.491" stroke="#C33579" stroke-width="4"/>
      <line x1="269.507" y1="154.852" x2="269.507" y2="135.222" stroke="#C33579" stroke-width="4"/>
      <line x1="258.579" y1="194.565" x2="279.265" y2="194.565" stroke="#C33579" stroke-width="4"/>
      <line x1="269.507" y1="203.926" x2="269.507" y2="184.296" stroke="#C33579" stroke-width="4"/>
      <line x1="206.863" y1="194.565" x2="227.549" y2="194.565" stroke="#C33579" stroke-width="4"/>
      <line x1="217.792" y1="203.926" x2="217.792" y2="184.296" stroke="#C33579" stroke-width="4"/>
      <line x1="258.579" y1="243.639" x2="279.265" y2="243.639" stroke="#C33579" stroke-width="4"/>
      <line x1="269.507" y1="253" x2="269.507" y2="233.37" stroke="#C33579" stroke-width="4"/>
      <line x1="206.863" y1="243.639" x2="227.549" y2="243.639" stroke="#C33579" stroke-width="4"/>
      <line x1="217.792" y1="253" x2="217.792" y2="233.37" stroke="#C33579" stroke-width="4"/>
      <line x1="206.863" y1="145.491" x2="227.549" y2="145.491" stroke="#C33579" stroke-width="4"/>
      <line x1="217.792" y1="154.852" x2="217.792" y2="135.222" stroke="#C33579" stroke-width="4"/>
      <line x1="155.147" y1="-1.73145" x2="175.834" y2="-1.73145" stroke="#C33579" stroke-width="4"/>
      <line x1="166.076" y1="7.62964" x2="166.076" y2="-12" stroke="#C33579" stroke-width="4"/>
      <line x1="155.147" y1="47.3425" x2="175.834" y2="47.3425" stroke="#C33579" stroke-width="4"/>
      <line x1="166.076" y1="56.7036" x2="166.076" y2="37.074" stroke="#C33579" stroke-width="4"/>
      <line x1="103.432" y1="47.3425" x2="124.118" y2="47.3425" stroke="#C33579" stroke-width="4"/>
      <line x1="114.36" y1="56.7036" x2="114.36" y2="37.074" stroke="#C33579" stroke-width="4"/>
      <line x1="155.147" y1="96.4167" x2="175.834" y2="96.4167" stroke="#C33579" stroke-width="4"/>
      <line x1="166.076" y1="105.778" x2="166.076" y2="86.1482" stroke="#C33579" stroke-width="4"/>
      <line x1="103.432" y1="96.4167" x2="124.118" y2="96.4167" stroke="#C33579" stroke-width="4"/>
      <line x1="114.36" y1="105.778" x2="114.36" y2="86.1482" stroke="#C33579" stroke-width="4"/>
      <line x1="103.432" y1="-1.73145" x2="124.118" y2="-1.73145" stroke="#C33579" stroke-width="4"/>
      <line x1="114.36" y1="7.62964" x2="114.36" y2="-12" stroke="#C33579" stroke-width="4"/>
      <line x1="155.147" y1="145.491" x2="175.834" y2="145.491" stroke="#C33579" stroke-width="4"/>
      <line x1="166.076" y1="154.852" x2="166.076" y2="135.222" stroke="#C33579" stroke-width="4"/>
      <line x1="155.147" y1="194.565" x2="175.834" y2="194.565" stroke="#C33579" stroke-width="4"/>
      <line x1="166.076" y1="203.926" x2="166.076" y2="184.296" stroke="#C33579" stroke-width="4"/>
      <line x1="103.432" y1="194.565" x2="124.118" y2="194.565" stroke="#C33579" stroke-width="4"/>
      <line x1="114.36" y1="203.926" x2="114.36" y2="184.296" stroke="#C33579" stroke-width="4"/>
      <line x1="155.147" y1="243.639" x2="175.834" y2="243.639" stroke="#C33579" stroke-width="4"/>
      <line x1="166.076" y1="253" x2="166.076" y2="233.37" stroke="#C33579" stroke-width="4"/>
      <line x1="103.432" y1="243.639" x2="124.118" y2="243.639" stroke="#C33579" stroke-width="4"/>
      <line x1="114.36" y1="253" x2="114.36" y2="233.37" stroke="#C33579" stroke-width="4"/>
      <line x1="103.432" y1="145.491" x2="124.118" y2="145.491" stroke="#C33579" stroke-width="4"/>
      <line x1="114.36" y1="154.852" x2="114.36" y2="135.222" stroke="#C33579" stroke-width="4"/>
      <line x1="51.7158" y1="-1.73145" x2="72.4021" y2="-1.73145" stroke="#C33579" stroke-width="4"/>
      <line x1="62.6445" y1="7.62964" x2="62.6445" y2="-12" stroke="#C33579" stroke-width="4"/>
      <line x1="51.7158" y1="47.3425" x2="72.4021" y2="47.3425" stroke="#C33579" stroke-width="4"/>
      <line x1="62.6445" y1="56.7036" x2="62.6445" y2="37.074" stroke="#C33579" stroke-width="4"/>
      <line y1="47.3425" x2="20.6863" y2="47.3425" stroke="#C33579" stroke-width="4"/>
      <line x1="10.9287" y1="56.7036" x2="10.9287" y2="37.074" stroke="#C33579" stroke-width="4"/>
      <line x1="51.7158" y1="96.4167" x2="72.4021" y2="96.4167" stroke="#C33579" stroke-width="4"/>
      <line x1="62.6445" y1="105.778" x2="62.6445" y2="86.1482" stroke="#C33579" stroke-width="4"/>
      <line y1="96.4167" x2="20.6863" y2="96.4167" stroke="#C33579" stroke-width="4"/>
      <line x1="10.9287" y1="105.778" x2="10.9287" y2="86.1482" stroke="#C33579" stroke-width="4"/>
      <line y1="-1.73145" x2="20.6863" y2="-1.73145" stroke="#C33579" stroke-width="4"/>
      <line x1="10.9287" y1="7.62964" x2="10.9287" y2="-12" stroke="#C33579" stroke-width="4"/>
      <line x1="51.7158" y1="145.491" x2="72.4021" y2="145.491" stroke="#C33579" stroke-width="4"/>
      <line x1="62.6445" y1="154.852" x2="62.6445" y2="135.222" stroke="#C33579" stroke-width="4"/>
      <line x1="51.7158" y1="194.565" x2="72.4021" y2="194.565" stroke="#C33579" stroke-width="4"/>
      <line x1="62.6445" y1="203.926" x2="62.6445" y2="184.296" stroke="#C33579" stroke-width="4"/>
      <line y1="194.565" x2="20.6863" y2="194.565" stroke="#C33579" stroke-width="4"/>
      <line x1="10.9287" y1="203.926" x2="10.9287" y2="184.296" stroke="#C33579" stroke-width="4"/>
      <line x1="51.7158" y1="243.639" x2="72.4021" y2="243.639" stroke="#C33579" stroke-width="4"/>
      <line x1="62.6445" y1="253" x2="62.6445" y2="233.37" stroke="#C33579" stroke-width="4"/>
      <line y1="243.639" x2="20.6863" y2="243.639" stroke="#C33579" stroke-width="4"/>
      <line x1="10.9287" y1="253" x2="10.9287" y2="233.37" stroke="#C33579" stroke-width="4"/>
      <line y1="145.491" x2="20.6863" y2="145.491" stroke="#C33579" stroke-width="4"/>
      <line x1="10.9287" y1="154.852" x2="10.9287" y2="135.222" stroke="#C33579" stroke-width="4"/>
    </mask>
    <g mask="url(#mask0_6221_33336)">
      <path d="M241.875 130.441C241.875 78.3596 201.902 34.9983 149.993 30.7706L-540.857 -25.4954V1222.32C-540.857 1274.69 -500.459 1318.18 -448.236 1322.05L241.875 1373.12V130.441Z" fill="url(#paint0_linear_6221_33336)"/>
    </g>
  </g>
  <defs>
    <linearGradient id="paint0_linear_6221_33336" x1="-149.491" y1="-25.4954" x2="241.394" y2="395.5" gradientUnits="userSpaceOnUse">
      <stop offset="0.215" stop-color="#2FB2DD"/>
      <stop offset="1" stop-color="#196077"/>
    </linearGradient>
  </defs>
</svg>
