<svg width="51" height="35" viewBox="0 0 51 35" fill="none" xmlns="http://www.w3.org/2000/svg">
  <g>
    <rect width="51" height="35" fill="#DE2910"/>
    <polygon fill="#FFDE00" points="8.4,3.84 11.79,14.26 2.92,7.82 13.88,7.82 5.01,14.26 8.4,3.84" />
    <polygon fill="#FFDE00" points="18.75,2.07 18.43,5.71 16.55,2.58 19.91,4.01 16.35,4.83 18.75,2.07" />
    <polygon fill="#FFDE00" points="23.22,6.34 21.51,9.57 20.99,5.96 23.54,8.58 19.94,7.95 23.22,6.34" />
    <polygon fill="#FFDE00" points="23.64,12.78 20.77,15.03 21.77,11.52 23.02,14.95 19.99,12.91 23.64,12.78" />
    <polygon fill="#FFDE00" points="18.68,15.48 18.51,19.13 16.5,16.08 19.92,17.37 16.4,18.34 18.68,15.48" />
  </g>
</svg>
