<svg width="2556" height="1460" viewBox="0 0 2556 1460" fill="none" xmlns="http://www.w3.org/2000/svg">
<g clip-path="url(#clip0_14154_197)">
<path d="M1268.09 90.4286C1291.6 89.4783 1325.14 90.2488 1348.01 97.3701C1360.3 101.197 1365.84 115.065 1370.84 125.925C1385.01 131.024 1399.33 138.825 1411.73 147.353C1460.42 181.096 1493.6 232.902 1503.89 291.242C1518.41 296.055 1518.14 299.405 1519.06 313.893C1534.53 318.559 1543.59 320.01 1533.31 337.538C1549.7 334.059 1562.26 333.323 1578.42 339.606C1597.16 347.056 1612.15 361.672 1620.09 380.214C1638.27 421.807 1617.41 453.504 1578.68 470.19C1602.32 558.562 1595.84 659.652 1599.76 751.274C1613.51 770.066 1634.03 780.916 1650.47 796.767C1650.63 797.55 1650.8 798.333 1650.97 799.115C1649.56 801.564 1648.19 803.257 1648.24 806.009C1651.53 809.955 1661.78 812.774 1666.94 814.484C1669.14 779.429 1675.65 748.446 1646.04 722.787C1619.67 699.931 1606.73 671.409 1616.99 636.839C1624.28 612.25 1637.94 593.844 1660.53 580.97C1663.91 579.044 1671.81 574.708 1675.44 575.789C1679.06 581.499 1679.47 628.85 1679.71 638.359C1683.94 642.255 1675.44 648.5 1692.47 647.426C1708.56 644.536 1727.02 642.301 1743.38 640.001C1742.25 621.992 1738.89 592.258 1739.2 573.812C1739.22 572.466 1740.43 572.264 1741.94 571.459C1753.72 571.565 1777.16 589.788 1785.65 598.788C1802.26 616.382 1808.86 640.586 1808.72 664.089C1808.5 701.387 1786.36 712.594 1761.95 735.728C1735.32 760.968 1737.42 783.87 1737.07 818.272C1739.08 818.969 1743.52 820.481 1745.3 821.485C1772.32 836.697 1767.33 888.224 1745.13 905.527C1742.18 907.824 1737.85 909.231 1734.32 910.384C1733.53 951.717 1731.95 993.369 1730.72 1034.69C1729.89 1049.69 1728.95 1064.91 1716.72 1075.31C1693.66 1094.89 1658.53 1079.01 1655.56 1049.43C1653.79 1031.81 1655.67 1013.6 1656.64 995.882C1658.16 967.267 1659.89 938.664 1661.85 910.076C1650.99 908.254 1642.35 906.293 1632.08 902.358C1627.53 900.615 1616.55 895.806 1612.63 895.878C1609.31 900.366 1609.26 899.748 1604.53 898.169C1602.87 899.913 1603.84 902.895 1604.14 906.139C1609.41 961.948 1613.33 1013.2 1609.92 1069.31C1605.11 1071.03 1597.97 1072.83 1592.91 1074.28L1590.91 1082.25C1579.05 1130.96 1563.28 1163.95 1529.92 1200.94C1545.75 1214.96 1562.77 1229.21 1569.02 1250.56C1573.92 1267.28 1557.68 1286.02 1542.04 1289.01C1520.72 1293.08 1504.7 1265.81 1491.72 1253.17C1486.3 1247.88 1482.59 1245.06 1476.05 1240.88C1469.08 1244.26 1462.05 1247.51 1454.97 1250.62C1375.4 1284.91 1267.69 1287.62 1183.77 1268.17C1163.01 1263.35 1147.09 1257.4 1127.54 1249.66C1092.08 1260.07 1081.96 1286.63 1048.48 1294.75C1043.67 1295.92 1038.87 1292.54 1035.45 1289.46C1021.21 1276.66 1016.21 1277.54 1015.13 1257.31C966.686 1244.89 918.326 1232.14 870.052 1219.08C850.199 1213.83 803.321 1202.62 785.83 1195.3C781.992 1170.85 785.547 1127.42 785.091 1101.19C785.751 1081.32 784.91 1061.31 786.085 1041.48C787.341 1026.8 791.328 1017.61 806.648 1014.37C824.476 1010.61 842.203 1009.15 859.923 1006.14C879.823 1002.76 892.325 1001.14 912.334 1004.38C912.338 988.308 909.929 975.707 923.125 964.439C922.56 922.946 931.876 888.753 948.421 851.185L936.671 844.085C954.329 814.837 977.924 783.048 997.973 755.325C997.206 742.083 998.816 731.653 997.961 718.991C992.598 639.536 982.347 558.975 1003.04 480.66C974.736 468.951 953.993 450.798 955.51 417.468C956.667 392.057 974.148 366.519 996.712 355.173C1003.83 351.593 1013.06 349.999 1019.96 345.64C1021.87 344.285 1022.17 339.647 1029.35 333.432C1029.81 317.085 1027.73 312.624 1044.38 306.166C1044.17 286.995 1051.39 260.572 1058.74 243.065C1083.14 184.966 1126.06 147.066 1183.15 123.077C1188.22 103.618 1197.49 99.4176 1216.31 95.8813C1233.71 92.6115 1250.5 91.5156 1268.09 90.4286Z" fill="#08090A"/>
<path d="M1290.74 326.474C1301.2 326.238 1311.66 326.101 1322.12 326.062C1347.31 325.989 1454.66 326.381 1473.37 333.503C1488.4 339.22 1504 353.127 1515.3 364.412C1529.82 378.91 1543 395.717 1552.33 414.056C1594.16 496.311 1591.81 629.477 1591.8 720.64C1579.7 728.025 1557.79 736.564 1544.36 741.937C1463.9 774.13 1385.89 785.3 1299.93 786.113C1199.22 785.645 1099.41 767.074 1005.28 731.287C1002.39 694.939 999.949 658.558 997.941 622.152C994.23 540.853 1002.67 444.965 1059.52 380.625C1068.29 371.332 1097.07 343.798 1109.2 341.404C1161.85 331.012 1239.04 328.779 1290.74 326.474Z" fill="#75CCDB"/>
<path d="M1396.77 345.362C1448.92 343.992 1489 369.751 1496.01 424.521C1503.53 483.342 1459.54 517.558 1404.85 523.131C1380.53 523.463 1358.11 519.233 1337.95 504.537C1319.85 491.561 1307.77 471.823 1304.44 449.806C1296.14 391.646 1342.94 352.386 1396.77 345.362Z" fill="#08090A"/>
<path d="M1397.11 351.416C1420.85 349.929 1442.98 354.656 1461.51 370.144C1494.26 397.518 1502.12 453.081 1473 485.902C1454.11 507.187 1430.28 515.382 1402.75 517.285C1382.67 517.576 1367.86 515.027 1350.12 505.4C1301.73 479.127 1296.46 415.116 1335.74 378.22C1353.94 361.13 1372.83 354.48 1397.11 351.416Z" fill="#FEFEFE"/>
<path d="M1381.58 395.559C1425.51 388.48 1438.58 454.649 1397.54 469.208C1352.47 474.203 1345.29 412.447 1381.58 395.559Z" fill="#08090A"/>
<path d="M1402.34 431.694C1415.33 431.265 1416.02 442.406 1408.76 451.025C1395.88 451.469 1394.54 440.291 1402.34 431.694Z" fill="#FEFEFE"/>
<path d="M1158.63 354.344C1206.73 347.548 1255.35 376.586 1262.67 426.736C1271.05 484.029 1235.82 522.07 1180.75 531.294C1059.72 548.536 1025.09 374.231 1158.63 354.344Z" fill="#08090A"/>
<path d="M1158.84 360.295C1181.87 357.154 1207.2 362.867 1226.47 376.627C1261.54 401.666 1268.42 457.067 1242.66 491.07C1226.45 512.47 1203.61 522.004 1177.25 525.603C1154.68 528.08 1131.62 523.505 1112.93 510.198C1095.42 497.598 1083.61 478.563 1080.11 457.271C1071.62 403.771 1108.55 368.256 1158.84 360.295Z" fill="#FEFEFE"/>
<path d="M1150.08 398.107C1190.98 396.38 1201.61 461.044 1159.67 473.436C1113.55 474.646 1112.24 409.134 1150.08 398.107Z" fill="#08090A"/>
<path d="M1167.05 435.565C1180.49 435.278 1180.89 446.875 1172.91 455.393C1159.79 455.3 1159.42 443.989 1167.05 435.565Z" fill="#FEFEFE"/>
<path d="M1287.52 495.322C1289.93 495.167 1292.35 495.05 1294.77 494.97C1315.48 494.344 1333.5 502.324 1333.83 525.387C1345.73 531.856 1355.76 537.857 1364.24 548.336C1379.35 567.011 1369.88 591.287 1346.08 594.749C1341.91 595.356 1336.7 594.217 1332.62 593.551C1333.87 613.515 1341.1 643.943 1315.34 648.74C1308.16 650.077 1306.32 648.757 1300.5 645.193C1297.16 642.722 1293.55 638.635 1290.59 635.526C1288.96 637.105 1287.29 638.651 1285.6 640.162C1276.56 648.144 1263.85 651.958 1255.08 640.989C1244.23 627.419 1243.92 610.114 1245.34 593.643C1245.14 593.608 1244.94 593.574 1244.74 593.539L1243.76 593.349C1237.74 592.237 1231.55 590.477 1227.75 585.729C1214.51 569.179 1218.69 544.272 1237.34 533.598C1242.11 530.871 1247.85 528.483 1251.35 525.103C1254.47 505.635 1269.65 498.142 1287.52 495.322Z" fill="#08090A"/>
<path d="M1294.59 545.948C1310.94 543.647 1319.43 541.984 1331.54 530.766C1345.21 537.933 1372.85 555.735 1364.64 573.792C1349.54 606.987 1318.93 575.652 1295.66 576.105C1275.81 576.491 1257.98 591.786 1238.7 586.312C1227.06 583.003 1223 562.89 1228.19 553.296C1233.69 541.407 1240.44 536.604 1252.45 531.474C1265.52 545.658 1272.88 545.163 1291.69 546.037L1294.59 545.948Z" fill="#F2D2A2"/>
<path d="M1297.5 582.284C1309.86 583.527 1315.34 586.519 1326.69 591.353C1327.33 603.203 1328.52 616.714 1327.57 628.414C1327.09 634.337 1326.65 636.026 1322.2 639.598C1318.74 641.341 1314.47 642.626 1310.75 643.895C1301.67 639.654 1300.23 638.437 1294.57 630.077C1293.75 621.694 1292.98 588.102 1297.5 582.284Z" fill="#FEFEFE"/>
<path d="M1285.49 582.894C1285.94 583.008 1287.29 583.828 1287.76 584.09C1288.49 586.305 1287.07 624.916 1287.13 630.214C1279.77 638.421 1271.74 646.054 1261.2 638.691C1250.28 626.019 1249.99 609.848 1251.72 594.089C1262.03 591.428 1275.2 586.467 1285.49 582.894Z" fill="#FEFEFE"/>
<path d="M1591.91 727.843L1593.22 728.751C1594.37 732.567 1593.47 746.292 1593.92 752.195L1594.02 753.453C1603.8 769.042 1628.83 787.012 1643.93 798.571C1634.81 814.714 1626.93 831.525 1620.35 848.86C1618.13 854.659 1607.58 887.545 1605.51 890.494L1604.05 890.548C1597.72 881.451 1600.67 805.533 1593.88 800.445L1591.81 801.06C1588.41 807.895 1602.91 962.526 1604 984.697C1605.48 1011.32 1605.59 1037.99 1604.34 1064.62C1463.49 1106.53 1315.72 1120.08 1169.6 1104.48C1171.07 1042.61 1165.88 1046.37 1107.98 1036.71L1039.07 1024.94C1039.55 1014.21 1041.73 990.267 1035.37 981.288C1034.65 979.289 1025.07 976.45 1025.45 974.547C1027.7 963.069 1023.08 958.349 1017.05 948.008C1017.17 939.473 1023 903.597 1031.45 900.526C1034.28 902.195 1034.83 902.74 1037.98 903.265C1043.4 899.899 1067.52 860.934 1063.67 854.564C1057.83 856.795 1041.16 888.816 1036.74 896.151C1028.93 890.68 1014.11 882.388 1005.68 877.443C985.519 865.75 965.43 853.94 945.41 842.016C963.089 815.388 984.461 782.971 1004.51 758.253C1004.23 751.322 1004.15 744.138 1003.98 737.18C1018.53 743.951 1046.23 752.723 1061.49 757.22C1209.19 800.755 1378.11 808.372 1524.57 756.278C1547.27 748.206 1570.75 739.417 1591.91 727.843Z" fill="#CFD0D0"/>
<path d="M1250.19 848.034C1266.86 847.511 1274.01 855.778 1272.06 872.133L1296.3 896.651C1304.62 893.399 1307.3 893.507 1315.28 896.385C1322.76 888.969 1332.76 879.748 1338.91 871.52C1340.73 863.671 1341.28 859.626 1345.7 852.778C1355.91 836.991 1380.29 855.699 1375.51 870.049C1371.01 883.57 1363.59 877.344 1364.15 894.643C1369.98 898.596 1378.04 906.674 1376.02 914.155C1365.68 952.391 1316.81 915.774 1351.19 895.109C1351.28 889.722 1351.02 884.262 1350.83 878.873C1342.67 887.052 1331.34 897.157 1324.7 906.149C1321.75 913.55 1326.31 918.848 1319.31 925.194C1303.82 939.224 1286.36 926.694 1288.63 907.08C1282.87 901.221 1268.62 884.755 1261.91 883.125C1258.15 885.873 1261.3 891.351 1262.38 895.264C1263.6 898.646 1268.72 901.25 1270.47 904.011C1278.85 917.213 1265.27 933.207 1251 930.715C1238.97 928.613 1233.06 912.945 1238.75 903.124C1239.83 901.248 1248.32 895.015 1248.23 893.496C1247.19 876.111 1220.45 862.204 1250.19 848.034Z" fill="#5D0F43"/>
<path d="M1317.14 997.976C1324.48 997.809 1337.59 996.67 1343.94 999.733C1353.86 1004.51 1351.93 1025.73 1347.23 1033.71C1337.93 1038.57 1327.93 1037.04 1317.14 1036.88V997.976Z" fill="#404041"/>
<path d="M1325.78 1005.02C1345.28 1004.54 1343.88 1010.78 1341.35 1028.54C1336.43 1030.27 1331.03 1029.87 1325.78 1029.84V1005.02Z" fill="#CFD0D0"/>
<path d="M1183.21 998.002C1200.21 997.451 1196.4 1007.5 1199.29 1020.84C1199.93 1023.82 1200.45 1026.96 1201.04 1029.95C1202.44 1023.11 1204.36 1001.75 1208.45 999.458C1228.92 987.989 1223.29 1030.5 1222.32 1035.75C1220.11 1037.27 1218.26 1036.8 1215.5 1036.66C1213.73 1034.41 1214.42 1013.53 1214.41 1008.88L1213.9 1007.69C1210.55 1012.28 1210.44 1031.18 1203.02 1036.92C1191.79 1037.21 1190.69 1015.04 1187.82 1005.4C1187.49 1014.33 1187.86 1023.21 1187.86 1032.15C1187.86 1034.58 1186.25 1035.56 1184.69 1036.91C1181.2 1037.36 1182.35 1037.73 1179.92 1036.04C1177.88 1027.37 1178.84 1016.07 1179.06 1007.12C1179.18 1001.83 1179.71 1001.3 1183.21 998.002Z" fill="#404041"/>
<path d="M1354.58 939.652C1364.39 937.898 1373.8 944.36 1375.68 954.154C1377.56 963.947 1371.22 973.434 1361.45 975.443C1355.02 976.765 1348.37 974.525 1344.05 969.577C1339.73 964.63 1338.41 957.742 1340.59 951.547C1342.77 945.351 1348.11 940.807 1354.58 939.652Z" fill="#015969"/>
<path d="M1303.29 939.596C1313.14 938.029 1322.42 944.673 1324.11 954.503C1325.8 964.333 1319.27 973.695 1309.47 975.509C1303.01 976.702 1296.41 974.332 1292.19 969.303C1287.97 964.274 1286.78 957.365 1289.08 951.215C1291.38 945.066 1296.81 940.627 1303.29 939.596Z" fill="#015969"/>
<path d="M1251.47 939.65C1261.18 937.961 1270.48 944.314 1272.43 953.981C1274.39 963.647 1268.29 973.113 1258.68 975.332C1252.23 976.822 1245.47 974.689 1241.05 969.763C1236.62 964.837 1235.21 957.894 1237.38 951.634C1239.55 945.374 1244.94 940.785 1251.47 939.65Z" fill="#015969"/>
<path d="M1301.23 848.669C1307.57 846.892 1314.37 848.669 1319.02 853.318C1323.67 857.967 1325.46 864.765 1323.68 871.099C1321.91 877.434 1316.86 882.32 1310.47 883.881C1300.82 886.239 1291.06 880.425 1288.54 870.817C1286.02 861.208 1291.67 851.352 1301.23 848.669Z" fill="#015969"/>
<path d="M1400.07 997.976C1404.3 997.869 1408.53 997.803 1412.75 997.778C1418.51 997.76 1433.74 998.74 1432.71 1008.51C1432.25 1012.9 1430.36 1017.45 1426.73 1020.23C1428.51 1024.95 1432.12 1031.36 1431.31 1035.5C1428.86 1037.54 1427.87 1036.82 1424 1036.82C1421.71 1030.81 1420.15 1024.28 1414.34 1021.25L1412.59 1021.82C1407.93 1027.27 1409.44 1035.45 1403.66 1038.39C1397.66 1036.2 1400.06 1005.2 1400.07 997.976Z" fill="#404041"/>
<path d="M1408.73 1005C1413.01 1005.02 1418.67 1004.1 1421.84 1006.13C1423.82 1010.12 1423.15 1009.6 1422.96 1014.52C1418.55 1014.97 1413.73 1016.13 1410.14 1014.12C1408 1010.41 1408.75 1009.77 1408.73 1005Z" fill="#CFD0D0"/>
<path d="M1297.84 1031.72C1297.97 1025.71 1297.36 1002.48 1298.82 998.458C1301.61 997.371 1300.18 997.482 1303.28 998.452C1308.85 1004.17 1308.15 1031.27 1302.71 1036.89C1300.87 1036.94 1295.35 1037.21 1294.16 1036.31C1287.31 1031.15 1284.54 1013.27 1281.35 1003.83C1281.2 1011.06 1284.89 1038.78 1274.91 1037.45C1271.2 1032.94 1271.34 1003.48 1276.19 998.155C1278.32 998.023 1283.76 997.663 1285.25 998.73C1292.01 1003.58 1295.28 1023.02 1297.84 1031.72Z" fill="#404041"/>
<path d="M1238.28 998.065C1242.77 998.023 1258.74 997.541 1262.21 998.542C1263.18 1000.77 1262.81 1001.17 1262.26 1003.56C1256.05 1007.96 1250.7 1002.75 1243.69 1005.48C1241.64 1008.3 1242.2 1007.08 1242.11 1010.96C1246.52 1016.93 1252.03 1011.39 1260.4 1013.88C1261.72 1016.84 1261.33 1015.85 1260.95 1019.46C1258.74 1021.62 1246.14 1020.76 1241.72 1021.3C1241.8 1023.91 1241.88 1025.06 1242.3 1027.63C1247.89 1032.89 1253.66 1028.51 1261.28 1029.96C1263.27 1032.63 1262.67 1031.63 1262.6 1035.69L1261.14 1036.74C1255.71 1037.04 1241.01 1037.72 1236.58 1035.68C1232.58 1030.83 1232.97 1020.29 1233.44 1014.11C1234.02 1006.56 1232.78 1003.02 1238.28 998.065Z" fill="#404041"/>
<path d="M1365.35 998.074C1372.2 998.035 1386.6 996.357 1390.87 1000.88C1389.68 1005.42 1374.91 1004.03 1369.15 1007.78L1368.91 1010.63C1372.56 1016.58 1382.94 1011.28 1388.03 1014.44C1388.83 1017.19 1388.76 1017.05 1387.79 1019.8C1385.05 1021.63 1373.62 1020.61 1368.93 1021.35C1368.98 1023.92 1369.05 1025.11 1369.42 1027.64C1375.22 1033.34 1382.19 1027.84 1388.73 1030.18C1390.25 1032.7 1389.72 1032.24 1389.64 1035.75L1388.15 1036.76C1382.11 1036.93 1368.53 1037.89 1363.62 1035.58C1360.06 1031.27 1359.98 1022.21 1360.44 1016.78C1361.09 1009.19 1359.48 1003.57 1365.35 998.074Z" fill="#404041"/>
<path d="M1277.77 96.4937C1285.76 96.3094 1293.75 96.441 1301.74 96.888C1317.78 97.7346 1336.99 98.6776 1351.54 106.592C1383.24 123.824 1358.36 271.873 1367.61 282.118L1369.34 281.91C1374.18 274.471 1374.35 181.45 1374.09 167.471C1373.99 155.797 1373.25 144.137 1371.89 132.542C1382.64 137.538 1393.08 143.181 1403.14 149.44C1454.9 182.134 1484.06 230.733 1497.23 289.448C1491.36 287.646 1486.57 285.352 1481.02 287.917C1476.34 292.589 1477.41 299.141 1477.4 305.93C1472.45 304.868 1467.34 304.026 1462.33 303.313C1384.3 292.208 1306.25 291.704 1227.75 296.451C1185.33 298.161 1127.92 307.097 1086.99 316.517C1086.71 311.791 1086.81 304.382 1083.59 300.812C1076.64 293.112 1058.46 302.191 1050.17 305.121C1051.17 288.039 1056.6 264.662 1063.23 248.831C1089.05 187.23 1129.3 153.351 1188.82 127.722C1218.92 159.512 1220.55 241.568 1231.87 282.94C1232.27 284.418 1234.24 284.545 1235.45 284.774L1237.22 283.324C1242.73 270.267 1241.55 190.271 1239.6 171.464C1236.64 142.919 1231.49 123.521 1208.64 104.474C1226.51 99.2659 1259.35 96.7568 1277.77 96.4937Z" fill="#F9D634"/>
<path d="M1257.15 190.408C1272.47 190.84 1342.87 188.252 1351.49 192.758C1354.38 198.307 1353.06 220.181 1352.84 227.752C1352.6 236.471 1355.09 267.499 1350.66 273.543C1337.52 273.955 1261.38 275.246 1254.18 271.03C1251.04 262.999 1253.72 211.809 1252.87 199.44C1252.57 195.063 1254.14 192.974 1257.15 190.408Z" fill="#08090A"/>
<path d="M1258.78 195.97C1288.46 196.144 1318.14 196.121 1347.81 195.901C1347.73 219.595 1348.02 244.471 1347.37 268.07C1317.85 268.585 1288.14 267.751 1258.47 268.279C1257.49 250.44 1258.19 213.998 1258.78 195.97Z" fill="#FEFEFE"/>
<path d="M1279.97 206.526C1288.76 208.672 1286.8 211.001 1288.85 217.3C1289.62 219.653 1297.43 226.276 1299.92 227.123C1312.81 231.497 1310.97 212.25 1321.09 207.755C1323.97 207.728 1324.3 207.303 1326.68 208.823C1328.29 209.845 1329.35 211.536 1329.58 213.426C1330.25 218.789 1327 219.204 1325.8 221.932C1322.83 228.671 1337.04 234.249 1324.8 241.307C1321.41 241.687 1321.03 241.547 1318.04 239.863C1313.53 233.78 1315.29 231.318 1320.1 226.059C1320.06 225.234 1319.7 223.474 1319.55 222.577L1318.14 222.207C1308.12 229.074 1311.65 239.381 1301.98 241.83C1294.16 240.077 1296.34 236.178 1292.72 229.916C1291.3 227.448 1288.16 224.866 1285.95 222.981C1283.67 224.905 1290.04 231.714 1286.78 239.653C1285.21 240.851 1283.71 242.308 1281.98 241.944C1268.38 239.077 1276.5 230.685 1279.16 223.985C1279.45 223.235 1274.35 217.814 1274.37 213.483C1275.82 209.729 1276.84 209.153 1279.97 206.526Z" fill="#5D0F43"/>
<path d="M1298.57 246.622C1301.02 245.342 1303.97 245.532 1306.23 247.114C1308.49 248.697 1309.67 251.407 1309.3 254.139C1308.93 256.872 1307.07 259.17 1304.47 260.097C1300.83 261.398 1296.8 259.657 1295.24 256.11C1293.69 252.564 1295.14 248.42 1298.57 246.622Z" fill="#015969"/>
<path d="M1300.33 207.665C1304.15 206.778 1307.99 209.03 1309.08 212.793C1310.17 216.556 1308.13 220.515 1304.43 221.805C1301.86 222.704 1298.99 222.107 1296.99 220.253C1294.99 218.399 1294.18 215.591 1294.88 212.954C1295.58 210.318 1297.68 208.283 1300.33 207.665Z" fill="#015969"/>
<path d="M1278.06 246.622C1280.44 245.377 1283.32 245.53 1285.55 247.021C1287.79 248.511 1289.04 251.102 1288.81 253.781C1288.58 256.46 1286.91 258.801 1284.45 259.888C1280.81 261.497 1276.56 259.93 1274.83 256.348C1273.11 252.766 1274.54 248.461 1278.06 246.622Z" fill="#015969"/>
<path d="M1319.12 246.624C1321.51 245.377 1324.38 245.533 1326.62 247.03C1328.86 248.528 1330.1 251.128 1329.86 253.81C1329.61 256.491 1327.92 258.826 1325.45 259.897C1321.82 261.472 1317.59 259.889 1315.89 256.315C1314.18 252.741 1315.61 248.458 1319.12 246.624Z" fill="#015969"/>
<path d="M1118.75 187.904C1123.8 189.152 1125.74 190.454 1126.57 195.386C1119 209.021 1108.04 220.879 1099.88 236.425C1093.52 248.556 1085.92 279.019 1079.24 285.431C1073.96 284.461 1075.27 285.373 1071.75 282.526C1063.08 265.284 1100.59 198.266 1118.75 187.904Z" fill="#FEFEFE"/>
<path d="M1143.02 160.934C1147.87 160.888 1150.03 161.244 1153.22 165.04C1155.82 172.135 1151.33 175.555 1146.12 179.128C1141.34 179.235 1139.59 178.982 1136.43 175.311C1133.67 168.449 1137.88 164.602 1143.02 160.934Z" fill="#FEFEFE"/>
<path d="M1582.36 1076.94L1584.31 1077.48C1585.51 1081.9 1578.17 1104.46 1576.35 1109.97C1557.01 1168.75 1522.73 1209.74 1467.46 1237.7C1379.92 1281.98 1245.29 1284.04 1153.48 1252.93C1147.48 1250.86 1141.09 1248.24 1135.14 1245.94C1145.69 1242.95 1160.23 1239.4 1169.91 1235.32C1171.05 1223.43 1170.54 1202.22 1170.53 1189.76L1170.17 1110.5C1284.29 1123.7 1399.8 1118.02 1512.07 1093.68C1533.86 1089.15 1561.24 1083.41 1582.36 1076.94Z" fill="#75CCDB"/>
<path d="M791.375 1085.3C803.332 1087.93 815.331 1090.38 827.366 1092.63C826.593 1099.54 824.744 1109.09 827.695 1115.22C832.515 1119.59 838.858 1120.31 845.048 1121.3C862.614 1124.1 859.163 1112.5 859.125 1098.99C892.258 1104.06 930.791 1115.64 963.461 1120.04C962.988 1124.81 961.154 1139.55 963.207 1143C966.429 1148.41 987.511 1152.74 993.185 1149.56C997.471 1143.66 996.469 1133.79 996.53 1126.26L1047.84 1136.94L1047.45 1209.43C1047.5 1226.15 1047.33 1242.87 1046.93 1259.59L879.757 1215.12C862.619 1210.62 803.785 1196.43 791.179 1190.28C789.567 1179.93 790.26 1160.08 790.42 1148.93L791.375 1085.3Z" fill="#D73F37"/>
<path d="M1744.93 577.642C1755.77 582.81 1768.15 589.421 1776.36 598.244C1785.59 608.146 1790.38 615.17 1796.43 627.389C1798.62 633.896 1799.92 638.133 1801.41 644.807C1802.57 656.673 1802.95 662.612 1801.34 674.696C1797.62 700.61 1779.2 711.615 1760.85 727.588C1736.37 748.897 1730.16 774.51 1731.05 805.763C1731.22 811.961 1731.92 818.385 1724.09 819.074C1715.44 810.123 1733.58 764.926 1706.22 765.443C1695.73 765.641 1688.45 771.992 1687.5 782.39C1684.69 812.993 1683.85 844.197 1681.76 874.869C1680.77 889.487 1681.22 906.267 1679.07 920.517C1678.78 934.093 1677.64 948.702 1676.82 962.332C1674.83 964.197 1674.85 970.73 1674.65 973.807L1672.54 970.143C1670.3 970.671 1668.06 971.243 1665.84 971.859C1666.3 962.782 1666.91 953.475 1665.91 944.464C1665.49 938.266 1667.33 918.375 1667.87 911.659C1667.25 901.993 1669.18 883.648 1669.69 872.883C1671.25 839.833 1674.52 806.439 1675.04 773.364C1675.48 745.883 1667.02 734.514 1648.49 716.105L1641.18 708.46L1634.29 701.242C1600.06 661.769 1628.72 602.653 1671.6 582.078C1672.37 602.319 1673.15 621.015 1674.71 641.225C1672.3 645.366 1669.54 648.224 1671.88 652.798C1679.46 657.395 1719.34 648.186 1730.94 648.183C1737.38 648.181 1750.17 645.441 1749.45 636.451C1747.89 616.968 1746.26 597.295 1744.93 577.642Z" fill="#CFD0D0"/>
<path d="M1739.26 680.594L1741.68 688.381C1749.65 689.075 1785.76 682.837 1795.89 681.828C1798.17 681.601 1799.92 677.178 1801.34 674.696C1797.62 700.61 1779.2 711.615 1760.85 727.588C1736.37 748.897 1730.16 774.51 1731.05 805.763C1731.22 811.961 1731.92 818.385 1724.09 819.074C1715.44 810.123 1733.58 764.926 1706.22 765.443C1695.73 765.641 1688.45 771.992 1687.5 782.39C1684.69 812.993 1683.85 844.197 1681.76 874.869C1680.77 889.487 1681.22 906.267 1679.07 920.517C1678.78 934.093 1677.64 948.702 1676.82 962.332C1674.83 964.197 1674.85 970.73 1674.65 973.807L1672.54 970.143C1670.3 970.671 1668.06 971.243 1665.84 971.859C1666.3 962.782 1666.91 953.475 1665.91 944.464C1665.49 938.266 1667.33 918.375 1667.87 911.659C1667.25 901.993 1669.18 883.648 1669.69 872.883C1671.25 839.833 1674.52 806.439 1675.04 773.364C1675.48 745.883 1667.02 734.514 1648.49 716.105C1654.63 710.496 1658.76 707.002 1666.39 703.691C1670.71 703.356 1674.75 703.584 1678.17 701.226C1680.47 697.195 1679.71 692.839 1679.87 687.685C1682.93 683.333 1733.74 676.33 1739.26 680.594Z" fill="#CFD0D0"/>
<path d="M1679.87 687.685C1682.93 683.333 1733.74 676.33 1739.26 680.594C1739.43 693.726 1743.45 709.606 1744.07 723.701C1729.3 726.827 1714.33 728.666 1699.48 731.334C1695.08 732.124 1692.06 732.362 1687.99 730.214C1682.36 724.397 1682.69 698.191 1679.87 687.685Z" fill="#08090A"/>
<path d="M1696.69 689.062C1697.95 688.935 1701.46 688.471 1702.44 689.075C1707.67 692.283 1719.8 717.3 1717.71 722.041C1715.65 722.204 1710.47 723.238 1709.55 721.336C1706.4 714.817 1695.47 695.34 1696.69 689.062Z" fill="#CFD0D0"/>
<path d="M1711.95 687.311C1714.53 686.88 1719.35 685.764 1720.79 688.509C1723.85 694.37 1735.22 713.647 1734.79 719.206C1731.14 720.012 1730.41 720.389 1726.83 719.808C1724.11 716.955 1712.69 691.533 1711.95 687.311Z" fill="#CFD0D0"/>
<path d="M1686.34 689.28C1691.06 696.801 1694.01 703.477 1697.75 711.497C1699.57 714.757 1702.23 718.497 1702.24 722.001C1699.95 724.863 1699.1 724.746 1694.9 725.215C1693.81 725.334 1692.72 725.444 1691.63 725.544C1690.15 722.095 1687.05 694.954 1686.34 689.28Z" fill="#CFD0D0"/>
<path d="M1691.63 725.544C1693.07 719.329 1690.6 717.313 1693.25 712.681L1697.75 711.497C1699.57 714.757 1702.23 718.497 1702.24 722.001C1699.95 724.863 1699.1 724.746 1694.9 725.215C1693.81 725.334 1692.72 725.444 1691.63 725.544Z" fill="#CFD0D0"/>
<path d="M1727 684.444C1734.83 685.145 1734.46 686.939 1735.29 694.63C1735.6 697.444 1735.68 700.367 1735.84 703.199C1731.89 700.349 1728.36 689.201 1727 684.444Z" fill="#CFD0D0"/>
<path d="M1667.87 911.659C1670.13 904.957 1670.5 895.798 1671.73 888.617C1672.41 894.484 1671.6 896.777 1674.94 900.423C1676.39 899.197 1676.26 899.152 1676.97 897.352L1678.07 897.842C1678.46 903.362 1678.44 916.228 1679.07 920.517C1678.78 934.093 1677.64 948.702 1676.82 962.332C1674.83 964.197 1674.85 970.73 1674.65 973.807L1672.54 970.143C1670.3 970.671 1668.06 971.243 1665.84 971.859C1666.3 962.782 1666.91 953.475 1665.91 944.464C1665.49 938.266 1667.33 918.375 1667.87 911.659Z" fill="#E5E6E8"/>
<path d="M1634.29 701.242C1634.4 700.698 1635.15 698.512 1635.38 698.411C1657.79 688.82 1697.43 673.371 1718.79 665.648C1734.76 659.874 1790.63 646.605 1796.98 639.984L1796.83 637.368C1799.46 638.868 1796.72 639.084 1801.41 644.807C1802.57 656.673 1802.95 662.612 1801.34 674.696C1799.92 677.178 1798.17 681.601 1795.89 681.828C1785.76 682.837 1749.65 689.075 1741.68 688.381L1739.26 680.594C1733.74 676.33 1682.93 683.333 1679.87 687.685C1679.71 692.839 1680.47 697.195 1678.17 701.226C1674.75 703.584 1670.71 703.356 1666.39 703.691C1658.76 707.002 1654.63 710.496 1648.49 716.105L1641.18 708.46L1634.29 701.242Z" fill="#E5E6E8"/>
<path d="M1641.18 708.46C1650.8 706.718 1653.19 704.12 1666.39 703.691C1658.76 707.002 1654.63 710.496 1648.49 716.105L1641.18 708.46Z" fill="#CFD0D0"/>
<path d="M1776.36 598.244C1785.59 608.146 1790.38 615.17 1796.43 627.389C1796.17 630.072 1795.95 631.608 1795.37 634.241L1792.28 632.476C1790.72 629.557 1774.57 600.649 1774.51 600.356L1776.36 598.244Z" fill="#E5E6E8"/>
<path d="M803.742 1022.06L804.671 1022.01C812.721 1021.48 829.801 1025.73 838.481 1027.46L905.154 1040.7L987.034 1056.77C1051.05 1069.28 1048.48 1063.8 1048.2 1130.72C1033.59 1127.44 1018.94 1124.35 1004.25 1121.43C990.685 1118.76 1002.29 1107.8 996.452 1101.49C991.285 1095.9 972.182 1092.54 965.7 1097.2C964.008 1100.86 964.043 1109.88 963.823 1114.36C936.524 1106.65 889.243 1098.56 860.002 1092.82C860.173 1088.72 861.546 1075.32 858.684 1073.01C853.078 1068.48 835.394 1065.08 829.663 1069.98C827.797 1074.12 828.105 1081.19 828 1085.99C815.979 1084 803.513 1081.3 791.526 1078.88C791.615 1069.42 791.314 1059.89 791.561 1050.43C791.889 1037.89 792.082 1028.96 803.742 1022.06Z" fill="#D73F37"/>
<path d="M1161.44 1115.19L1163.2 1115.55C1165.64 1119.38 1164.19 1218.48 1164.19 1230.23C1156.25 1234.15 1136.64 1238.36 1127.47 1240.75C1103.88 1246.89 1079.96 1252.25 1056.45 1258.85C1056.03 1258.95 1054.78 1258.76 1054.27 1258.71C1052.87 1255.91 1054.18 1149.92 1054.28 1136.9C1090.01 1129.41 1125.85 1122.85 1161.44 1115.19Z" fill="#D73F37"/>
<path d="M953.824 854.433C976.797 867.832 1002.3 882.12 1024.54 896.276C1017.89 910.382 1008.68 935.074 1011.75 950.955C1012.45 954.594 1018.59 962.323 1019.34 966.491C1019.95 969.908 1019.69 970.295 1018.26 972.867C1011.88 975.124 1002.32 966.964 997.218 974.972C987.672 989.943 1006.4 996.765 1007.65 1003C1005.71 1006.7 999.581 1009.38 995.782 1010.83C989.821 1010.85 986.527 1008.86 981.265 1006.31C978.601 1001.56 976.159 994.434 970.609 994.318C969.073 999.761 974.942 1003.42 971.886 1008.86C957.988 1013 954.189 994.996 947.906 990.121C944.871 991.451 947.546 993.951 944.359 998.048L942.185 997.543C912.504 971.076 939.692 885.196 953.824 854.433Z" fill="#75CCDB"/>
<path d="M1267.93 300.547C1343.81 297.422 1421.65 301.832 1496.4 315.406C1504.61 316.898 1529.73 320.53 1532.1 328.939C1531.74 329.8 1531.42 330.69 1530.73 331.359C1527.02 334.945 1524.12 334.445 1519.47 333.533C1447.06 319.329 1353.88 316.944 1280.1 320.89C1221.68 321.98 1163.38 326.654 1105.54 334.888C1084.64 337.954 1064.93 341.972 1044.45 347.107C1040.35 348.135 1030.16 348.32 1028.52 343.613C1031.53 338.523 1048.43 333.87 1054.48 332.023C1123.01 311.102 1196.49 303.206 1267.93 300.547Z" fill="#F9D634"/>
<path d="M1147.71 1052.34C1167.07 1049.49 1163.99 1096.59 1164.13 1108.53C1155.6 1110.97 1139.3 1113.37 1130.02 1115.17L1065.29 1128.2C1057.8 1129.92 1054.53 1132.4 1054.3 1124.05C1053.75 1104.23 1056.81 1086.62 1046.07 1068.79C1078.53 1064.5 1114.9 1057.55 1147.71 1052.34Z" fill="#D73F37"/>
<path d="M1546.78 341.35C1609.13 335.837 1649.76 418.594 1593.46 455.627C1588.38 458.97 1582.94 461.647 1577.51 464.393C1575.86 462.087 1564.74 426.05 1562.11 419.498C1568.76 413.102 1572.73 406.053 1570.59 396.585C1569.22 390.492 1565.43 385.219 1560.09 381.974C1551.89 377.019 1545.88 377.796 1537.25 379.964C1529.91 370.639 1521.95 361.817 1513.43 353.557C1525.45 346.536 1533.03 343.603 1546.78 341.35Z" fill="#75CCDB"/>
<path d="M1717.76 906.457C1721.5 907.101 1724.7 907.244 1727.68 909.432C1730.26 920.877 1723.87 1025.3 1723.66 1044.39C1722.53 1055.16 1720.97 1064.34 1711.91 1071.02C1691.97 1085.73 1663.99 1073.19 1661.65 1048.37C1659.9 1029.88 1661.83 1009.37 1662.92 990.586C1663.75 976.118 1663.86 958.854 1665.91 944.464C1666.91 953.475 1666.3 962.782 1665.84 971.859C1668.06 971.243 1670.3 970.671 1672.54 970.143L1674.65 973.807C1674.85 970.73 1674.83 964.197 1676.82 962.332C1678.43 977.459 1666.62 1011.14 1694.3 1011.8C1699.32 1011.93 1704.19 1010.04 1707.81 1006.54C1710.39 1003.98 1712.21 1000.76 1713.06 997.221C1715 989.531 1715.3 970.981 1715.64 962.119L1717.76 906.457Z" fill="#CFD0D0"/>
<path d="M1689.51 1027.18C1700.08 1025.43 1710.04 1032.63 1711.71 1043.21C1713.38 1053.79 1706.11 1063.71 1695.52 1065.3C1685.03 1066.88 1675.23 1059.7 1673.58 1049.22C1671.93 1038.75 1679.04 1028.9 1689.51 1027.18Z" fill="#08090A"/>
<path d="M1688.78 1033.29C1695.74 1031.24 1703.07 1035.09 1705.34 1041.99C1707.61 1048.88 1704 1056.33 1697.18 1058.82C1692.57 1060.5 1687.41 1059.54 1683.72 1056.31C1680.02 1053.08 1678.38 1048.1 1679.44 1043.3C1680.49 1038.51 1684.07 1034.67 1688.78 1033.29Z" fill="#FEFEFE"/>
<path d="M1725.65 951.367C1725.7 963.832 1724.79 975.897 1723.97 988.312C1724.09 991.7 1724.6 994.246 1722.96 997.081L1720.99 997.307C1713.79 991.331 1716.12 977.142 1716.94 968.901C1717.55 959.519 1719.26 958.724 1725.65 951.367Z" fill="#FEFEFE"/>
<path d="M1716.94 968.901C1717.24 973.062 1716.6 975.449 1718.87 978.046L1721.23 978.491C1724.19 983.862 1721.56 983.007 1723.97 988.312C1724.09 991.7 1724.6 994.246 1722.96 997.081L1720.99 997.307C1713.79 991.331 1716.12 977.142 1716.94 968.901Z" fill="#E5E6E8"/>
<path d="M1020.89 353.434C1041.56 352.721 1047.94 354.339 1066.6 364.065C1054.69 375.874 1048.16 383.36 1038.21 396.853C1018.77 388.396 995.484 391.428 997.413 419.587C998.081 429.34 1008.02 436.097 1015.61 441.22C1013.46 445.91 1011.13 452.775 1009.28 457.744L1004.27 474.537C932.822 446.749 960.081 364.383 1020.89 353.434Z" fill="#75CCDB"/>
<path d="M841.319 1015.59C869.568 1010.91 883.741 1006.32 912.149 1010.48C912.234 1016.29 911.672 1022.95 916.392 1026.79C928.661 1036.78 934.226 1025.24 934.851 1014.26C961.267 1019.53 988.292 1022.8 1014.24 1028.06C1014 1033.46 1013.03 1040.29 1017.52 1043.69C1030.46 1053.51 1038.2 1044.28 1039.46 1031.78C1069.8 1036.62 1103.01 1041.37 1132.87 1047.79C1102.83 1053.04 1071.27 1059.15 1041.24 1063.71C1024.45 1055.47 986.836 1050.23 966.5 1046.33L886.701 1030.38C871.181 1027.32 853.234 1024.37 838.054 1020.75L823.48 1018.11C829.085 1016.94 835.576 1016.3 841.319 1015.59Z" fill="#D73F37"/>
<path d="M823.48 1018.11C829.085 1016.94 835.576 1016.3 841.319 1015.59L836.835 1018.07C837.037 1020.08 836.744 1019.15 838.054 1020.75L823.48 1018.11Z" fill="#B52B2B"/>
<path d="M1698.53 857.011C1709.58 845.765 1717.51 855.389 1722.44 847.156L1722.14 845.014C1714.45 840.907 1703.84 849.084 1699.42 844.158C1699.63 840.944 1703.4 834.506 1705.98 832.804C1758.72 798.056 1773.78 875.505 1739.49 902.237C1738.84 902.748 1738.18 903.251 1737.51 903.746C1728.29 902.622 1697.07 895.532 1700.2 882.693C1707.22 875.511 1718.22 883.08 1722.72 876.492C1720.7 868.684 1704.95 875.126 1698.59 873.069C1692.93 867.477 1694.16 863.013 1698.53 857.011Z" fill="#F2D2A2"/>
<path d="M1698.53 857.011C1700.81 860.811 1702.45 869.537 1698.59 873.069C1692.93 867.477 1694.16 863.013 1698.53 857.011Z" fill="#EED1AA"/>
<path d="M1524.79 1205.77C1540.07 1214.97 1561.66 1237.79 1563.39 1256.44C1564.15 1264.49 1560.94 1268.65 1556 1274.33C1553.46 1268.1 1545.16 1243.52 1537.4 1246.12L1536.49 1247.95C1537.36 1251.21 1545.27 1262.87 1548.3 1270.75C1549.46 1273.66 1550.47 1275.09 1549.71 1277.91C1533.84 1297.9 1507.55 1260.46 1497.49 1250.41C1492.38 1245.3 1488.4 1241.64 1482.72 1237.12C1500.24 1226.09 1509.57 1219.48 1524.79 1205.77Z" fill="#F2D2A2"/>
<path d="M1644.62 811.908C1651.76 815.88 1658.82 818.451 1666.67 820.564C1664.92 848.469 1663.46 876.391 1662.29 904.326C1655.24 902.719 1648.22 900.95 1641.25 899.019C1632.32 896.502 1622 892.169 1613.66 888.106C1620.65 863.418 1631.72 834.22 1644.62 811.908Z" fill="#75CCDB"/>
<path d="M1688.37 870.618C1693.08 873.671 1693.21 878.189 1694.18 882.888C1696.55 894.299 1702.42 898.083 1711.84 903.995C1709.26 934.195 1711.73 965.924 1707.16 996C1706.86 997.96 1704.54 1000.99 1703.33 1002.55C1687 1012.33 1679.75 997.474 1681.52 982.451C1685.75 946.45 1683.54 906.149 1688.37 870.618Z" fill="#CFD0D0"/>
<path d="M1189.39 120.956C1193.43 112.227 1199.26 102.369 1209.45 112.584C1229.17 132.337 1233.41 158.186 1234.06 184.909C1235.99 200.808 1236.11 247.358 1233.86 263.22C1232.51 256.178 1230.98 248.958 1230.3 241.839C1223.43 208.477 1217.7 142.552 1189.39 120.956Z" fill="#F9D634"/>
<path d="M1234.06 184.909C1235.99 200.808 1236.11 247.358 1233.86 263.22C1232.51 256.178 1230.98 248.958 1230.3 241.839L1232.33 241.259C1235.3 235.88 1232.78 196.036 1234.06 184.909Z" fill="#DCC12E"/>
<path d="M1691.93 810.716C1692.05 798.905 1690.31 758.113 1713.23 775.828C1718.36 779.795 1715.62 812.543 1715.29 820.489C1703 825.706 1700.35 827.668 1693.66 839.129C1693.1 844.257 1693.7 845.766 1694.93 850.738L1688.57 862.156C1689.42 848.244 1689.97 823.634 1691.93 810.716Z" fill="#CFD0D0"/>
<path d="M1691.93 810.716C1693 819.176 1690.51 834.908 1693.66 839.129C1693.1 844.257 1693.7 845.766 1694.93 850.738L1688.57 862.156C1689.42 848.244 1689.97 823.634 1691.93 810.716Z" fill="#B4B3B4"/>
<path d="M1094.92 1255.25L1097.05 1255L1098.17 1255.9C1083.92 1265.85 1059.76 1294.43 1042.02 1287.08C1031.99 1278.37 1036.25 1274.67 1041.88 1264.61C1055.75 1267.73 1079.82 1259.22 1094.92 1255.25Z" fill="#F2D2A2"/>
<path d="M1003.52 977.784C1009.05 978.821 1025.01 981.451 1028.54 984.137C1036.21 989.976 1033.7 1035.11 1029.71 1040.71C1027.88 1040.68 1026.06 1040.54 1024.23 1040.44C1014.49 1033.35 1024.58 1007.31 1019.45 997.033C1015.72 989.583 1004.73 994.263 1001.2 985.916C1001.31 981.957 1001.71 981.354 1003.52 977.784Z" fill="#B4B3B4"/>
<path d="M970.307 1100.27C977.479 1101.05 984.917 1103.16 991.953 1104.93C991.272 1117.89 990.405 1130.84 989.35 1143.77C985.048 1145.09 973.545 1141.89 968.545 1140.8C968.574 1127.39 969.539 1113.68 970.307 1100.27Z" fill="#CFD0D0"/>
<path d="M834.471 1073.46C840.013 1073.74 848.305 1075.62 853.962 1076.73C853.65 1089.67 853.494 1102.88 852.527 1115.76C844.844 1114.9 839.87 1113.64 832.437 1111.81C833.416 1099.34 833.679 1086.07 834.471 1073.46Z" fill="#CFD0D0"/>
<path d="M1075.57 304.097L1077.97 304.086C1080.68 306.824 1081.05 313.919 1081.6 318.084C1067.14 321.976 1054.72 325.293 1040.38 329.885L1037.45 330.643L1035.98 329.439C1033.05 315.758 1041.86 313.213 1052.55 310.178C1060.2 308.006 1067.86 306.04 1075.57 304.097Z" fill="#F9D634"/>
<path d="M923.086 972.556C928.318 978.155 931.678 1017.4 924.943 1024.31C921.707 1023.18 918.978 1021.9 918.713 1018.04C917.871 1005.76 916.115 982.754 923.086 972.556Z" fill="#CFD0D0"/>
<path d="M1484.1 292.051C1492.88 294.528 1501.6 297.2 1510.27 300.066C1511.81 303.762 1512.43 304.849 1512.57 308.93C1509.59 313.805 1503.85 311.185 1498.94 309.742C1495.44 309.492 1487.31 307.451 1483.52 306.6L1484.1 292.051Z" fill="#F9D634"/>
<path d="M1510.27 300.066C1511.81 303.762 1512.43 304.849 1512.57 308.93C1509.59 313.805 1503.85 311.185 1498.94 309.742L1500.02 307.718C1505.35 304.677 1504.8 302.187 1510.27 300.066Z" fill="#F9D634"/>
<path d="M1089.38 343.149C1090.69 343.049 1090.19 343.063 1091.53 343.682C1090.42 346.124 1074.81 357.116 1071.44 359.644L1064.57 356.007L1053.67 351.371L1089.38 343.149Z" fill="#F9D634"/>
<path d="M1488.84 334.241C1495.11 334.384 1514.34 337.34 1519.54 340.701L1519.82 342.165L1517 344.147L1507.93 348.92C1503.47 345.357 1491.04 337.625 1488.84 334.241Z" fill="#F9D634"/>
<path d="M1020.5 1259.26C1025.09 1259.87 1030.98 1261.71 1035.57 1263L1031.04 1272.99L1029.16 1275.32L1027.06 1275.11C1022.82 1271.19 1021.57 1264.72 1020.5 1259.26Z" fill="#EED1AA"/>
<path d="M1013 1004.76L1013.74 1005.46C1014.7 1008.64 1014.21 1017.99 1014.14 1021.83C1009.41 1020.73 1004.01 1019.78 999.198 1018.81C997.462 1018.65 998.249 1018.94 996.949 1017.6C1005.35 1012.42 1007.87 1013.72 1013 1004.76Z" fill="#CFD0D0"/>
<path d="M934.537 1000.42C937.086 1001.37 937.759 1002.56 940.093 1003.57C947.177 1006.63 950.356 1005.18 955.775 1010.98C951.45 1011.05 939.219 1010.06 936.087 1007.01C934.015 1004.99 934.696 1003.82 934.537 1000.42Z" fill="#E5E6E8"/>
<path d="M975.145 1011.94C979.508 1011.35 984.942 1012.14 985.608 1017.24C981.628 1016.26 977.633 1016.64 974.589 1014.35L975.145 1011.94Z" fill="#75CCDB"/>
</g>
<defs>
<clipPath id="clip0_14154_197">
<rect width="2556" height="1460" fill="white"/>
</clipPath>
</defs>
</svg>
